<svg width="184" height="197" viewBox="0 0 184 197" fill="none" xmlns="http://www.w3.org/2000/svg">
<rect x="0.5" y="4.3" width="183" height="192.2" rx="9.5" fill="white" stroke="black"/>
<path d="M37.0566 44.0879C35.8066 44.0879 34.7617 43.8438 33.9219 43.3555C33.082 42.8477 32.3984 42.1836 31.8711 41.3633C31.3438 40.5234 30.9434 39.5957 30.6699 38.5801C30.3965 37.5645 30.2109 36.5195 30.1133 35.4453C30.0156 34.3516 29.9668 33.3262 29.9668 32.3691C29.9668 31.4121 30.0254 30.416 30.1426 29.3809C30.2793 28.3457 30.4941 27.3398 30.7871 26.3633C31.0996 25.3867 31.5293 24.5078 32.0762 23.7266C32.6426 22.9258 33.3457 22.291 34.1855 21.8223C35.0254 21.3535 36.041 21.1191 37.2324 21.1191C38.2871 21.1191 39.2246 21.3242 40.0449 21.7344C40.8652 22.1445 41.5488 22.8086 42.0957 23.7266C42.3496 24.1367 42.5645 24.5762 42.7402 25.0449C42.916 25.5137 43.0039 25.9922 43.0039 26.4805C43.0039 27.3008 42.5645 27.7109 41.6855 27.7109C41.1973 27.7109 40.8359 27.584 40.6016 27.3301C40.3867 27.0566 40.2109 26.7246 40.0742 26.334C39.957 25.9238 39.8008 25.5234 39.6055 25.1328C39.4297 24.7227 39.1562 24.3906 38.7852 24.1367C38.4141 23.8633 37.8574 23.7266 37.1152 23.7266C36.3145 23.7266 35.6504 23.9219 35.123 24.3125C34.5957 24.7031 34.1758 25.2207 33.8633 25.8652C33.5508 26.5098 33.3164 27.2129 33.1602 27.9746C33.0234 28.7363 32.9258 29.4883 32.8672 30.2305C32.8281 30.9727 32.8086 31.627 32.8086 32.1934C32.8086 32.7402 32.8281 33.4141 32.8672 34.2148C32.9062 35.0156 32.9941 35.8457 33.1309 36.7051C33.2676 37.5449 33.4824 38.3359 33.7754 39.0781C34.0879 39.8203 34.5078 40.4258 35.0352 40.8945C35.5625 41.3438 36.2363 41.5684 37.0566 41.5684C38.1113 41.5684 38.9023 41.2852 39.4297 40.7188C39.957 40.1523 40.2207 39.3516 40.2207 38.3164V35.1816C40.2207 34.8105 40.1035 34.5762 39.8691 34.4785C39.6543 34.3613 39.3809 34.3125 39.0488 34.332C38.7168 34.332 38.375 34.332 38.0234 34.332C37.6133 34.332 37.252 34.2637 36.9395 34.127C36.627 33.9707 36.4707 33.6191 36.4707 33.0723C36.4707 32.584 36.6172 32.252 36.9102 32.0762C37.2031 31.9004 37.5645 31.8125 37.9941 31.8125H40.3965C41.1191 31.8125 41.7246 31.9785 42.2129 32.3105C42.7207 32.6426 42.9746 33.209 42.9746 34.0098V38.2285C42.9746 40.0449 42.4375 41.4805 41.3633 42.5352C40.3086 43.5703 38.873 44.0879 37.0566 44.0879ZM46.5781 44.0879C46.0508 44.0879 45.6895 43.9219 45.4941 43.5898C45.2988 43.2578 45.2012 42.8574 45.2012 42.3887V23.9609C45.2012 23.2969 45.4355 22.7305 45.9043 22.2617C46.3926 21.7734 46.9688 21.5293 47.6328 21.5293H51.2949C52.623 21.5293 53.7754 21.7246 54.752 22.1152C55.748 22.4863 56.5195 23.1016 57.0664 23.9609C57.6133 24.8008 57.8867 25.9336 57.8867 27.3594C57.8867 28.9609 57.4375 30.1914 56.5391 31.0508C55.6602 31.9102 54.4785 32.5059 52.9941 32.8379C53.502 32.9746 53.9902 33.1602 54.459 33.3945C54.9473 33.6094 55.3477 33.9219 55.6602 34.332C55.9922 34.7422 56.2754 35.3184 56.5098 36.0605C56.7441 36.8027 56.9395 37.5645 57.0957 38.3457C57.2715 39.1074 57.4082 39.7422 57.5059 40.25C57.6035 40.6211 57.7109 41.0312 57.8281 41.4805C57.9453 41.9297 58.0039 42.3496 58.0039 42.7402C58.0039 43.209 57.8672 43.5508 57.5938 43.7656C57.3398 43.9805 56.9883 44.0879 56.5391 44.0879C56.0508 44.0879 55.6797 43.9023 55.4258 43.5312C55.1719 43.1602 54.9863 42.6719 54.8691 42.0664C54.752 41.4609 54.6445 40.7969 54.5469 40.0742C54.4688 39.332 54.3516 38.5996 54.1953 37.877C54.0586 37.1348 53.834 36.4609 53.5215 35.8555C53.2285 35.25 52.7988 34.7617 52.2324 34.3906C51.666 34.0195 50.9238 33.834 50.0059 33.834H47.9551V42.3887C47.9551 42.8574 47.8574 43.2578 47.6621 43.5898C47.4668 43.9219 47.1055 44.0879 46.5781 44.0879ZM47.9551 31.3438H50.2402C51.1387 31.3438 51.9492 31.2266 52.6719 30.9922C53.3945 30.7383 53.9707 30.3184 54.4004 29.7324C54.8301 29.1465 55.0449 28.3652 55.0449 27.3887C55.0449 26.1582 54.6641 25.2891 53.9023 24.7812C53.1602 24.2734 52.2227 24.0195 51.0898 24.0195H49.1855C48.8145 24.0195 48.5117 24.127 48.2773 24.3418C48.0625 24.5566 47.9551 24.8594 47.9551 25.25V31.3438ZM61.0215 44.0879C60.6504 44.0879 60.3477 44 60.1133 43.8242C59.8789 43.6484 59.7617 43.3652 59.7617 42.9746C59.7617 42.9355 59.7617 42.8574 59.7617 42.7402C59.7812 42.623 59.8008 42.5547 59.8203 42.5352L64.6836 22.8184C64.8008 22.3105 64.9961 21.9004 65.2695 21.5879C65.5625 21.2754 65.9824 21.1191 66.5293 21.1191C67.0957 21.1191 67.5156 21.2949 67.7891 21.6465C68.082 21.998 68.2871 22.4277 68.4043 22.9355L73.209 42.5352C73.2285 42.5547 73.2383 42.623 73.2383 42.7402C73.2578 42.8574 73.2676 42.9355 73.2676 42.9746C73.2676 43.3652 73.1504 43.6484 72.916 43.8242C72.7012 44 72.3984 44.0879 72.0078 44.0879C71.6367 44.0879 71.3438 43.9707 71.1289 43.7363C70.9141 43.502 70.7676 43.2188 70.6895 42.8867L69.4883 37.7305H63.5703L62.3398 42.8867C62.2617 43.2188 62.1152 43.502 61.9004 43.7363C61.6855 43.9707 61.3926 44.0879 61.0215 44.0879ZM64.127 35.3281H68.9023L66.5293 25.25L64.127 35.3281ZM76.5781 44.0879C76.0508 44.0879 75.6895 43.9219 75.4941 43.5898C75.2988 43.2578 75.2012 42.8574 75.2012 42.3887V23.873C75.2012 23.2285 75.4258 22.6816 75.875 22.2324C76.3242 21.7637 76.8711 21.5293 77.5156 21.5293H86.627C87.0762 21.5293 87.4473 21.627 87.7402 21.8223C88.0332 21.998 88.1797 22.3301 88.1797 22.8184C88.1797 23.3066 88.0332 23.6484 87.7402 23.8438C87.4473 24.0195 87.0762 24.1074 86.627 24.1074H79.1562C78.375 24.1074 77.9844 24.498 77.9844 25.2793V31.2559H85.2207C85.6699 31.2559 86.041 31.3535 86.334 31.5488C86.627 31.7246 86.7734 32.0566 86.7734 32.5449C86.7734 33.0332 86.627 33.375 86.334 33.5703C86.041 33.7461 85.6699 33.834 85.2207 33.834H77.9844V42.3887C77.9844 42.877 77.877 43.2871 77.6621 43.6191C77.4668 43.9316 77.1055 44.0879 76.5781 44.0879ZM96.4707 44.0879C95.9238 44.0879 95.543 43.9219 95.3281 43.5898C95.1328 43.2383 95.0352 42.8184 95.0352 42.3301V22.877C95.0352 22.3691 95.1426 21.9492 95.3574 21.6172C95.5723 21.2852 95.9531 21.1191 96.5 21.1191C97.0469 21.1191 97.418 21.2852 97.6133 21.6172C97.8281 21.9492 97.9355 22.3691 97.9355 22.877V42.3301C97.9355 42.8184 97.8281 43.2383 97.6133 43.5898C97.3984 43.9219 97.0176 44.0879 96.4707 44.0879ZM111.676 44.0879C110.426 44.0879 109.303 43.8438 108.307 43.3555C107.311 42.8477 106.5 42.0273 105.875 40.8945C105.621 40.4453 105.406 39.9766 105.23 39.4883C105.074 38.9805 104.996 38.4629 104.996 37.9355C104.996 36.9395 105.484 36.4414 106.461 36.4414C106.91 36.4414 107.242 36.5684 107.457 36.8223C107.672 37.0566 107.838 37.3691 107.955 37.7598C108.072 38.1504 108.189 38.5703 108.307 39.0195C108.424 39.4492 108.6 39.8594 108.834 40.25C109.068 40.6406 109.41 40.9629 109.859 41.2168C110.328 41.4512 110.953 41.5684 111.734 41.5684C112.809 41.5684 113.648 41.1973 114.254 40.4551C114.859 39.6934 115.162 38.8047 115.162 37.7891C115.162 36.9688 114.977 36.2852 114.605 35.7383C114.254 35.1914 113.785 34.7324 113.199 34.3613C112.613 33.9707 111.969 33.6191 111.266 33.3066C110.562 32.9941 109.85 32.6719 109.127 32.3398C108.424 31.9883 107.779 31.5879 107.193 31.1387C106.607 30.6699 106.129 30.0938 105.758 29.4102C105.406 28.707 105.23 27.8477 105.23 26.832C105.23 25.6406 105.494 24.625 106.021 23.7852C106.549 22.9258 107.262 22.2715 108.16 21.8223C109.078 21.3535 110.104 21.1191 111.236 21.1191C112.252 21.1191 113.238 21.334 114.195 21.7637C115.152 22.1738 115.943 22.7793 116.568 23.5801C117.213 24.3613 117.535 25.3086 117.535 26.4219C117.535 27.3594 117.066 27.8281 116.129 27.8281C115.66 27.8281 115.309 27.6914 115.074 27.418C114.859 27.125 114.674 26.7734 114.518 26.3633C114.381 25.9336 114.205 25.5137 113.99 25.1035C113.795 24.6934 113.482 24.3516 113.053 24.0781C112.623 23.7852 112.008 23.6387 111.207 23.6387C110.172 23.6387 109.371 23.8926 108.805 24.4004C108.258 24.9082 107.984 25.6895 107.984 26.7441C107.984 27.4277 108.16 28.0039 108.512 28.4727C108.883 28.9219 109.361 29.3223 109.947 29.6738C110.553 30.0059 111.207 30.3281 111.91 30.6406C112.633 30.9336 113.346 31.2656 114.049 31.6367C114.771 31.9883 115.426 32.4277 116.012 32.9551C116.617 33.4629 117.096 34.0977 117.447 34.8594C117.818 35.6211 118.004 36.5586 118.004 37.6719C118.004 39.625 117.438 41.1875 116.305 42.3594C115.191 43.5117 113.648 44.0879 111.676 44.0879ZM126.939 44.0879C125.729 44.0879 124.703 43.8535 123.863 43.3848C123.043 42.8965 122.369 42.252 121.842 41.4512C121.334 40.6504 120.943 39.752 120.67 38.7559C120.416 37.7598 120.24 36.7441 120.143 35.709C120.045 34.6543 119.996 33.6582 119.996 32.7207C119.996 31.7637 120.045 30.7578 120.143 29.7031C120.24 28.6289 120.426 27.584 120.699 26.5684C120.973 25.5527 121.363 24.6348 121.871 23.8145C122.398 22.9941 123.082 22.3398 123.922 21.8516C124.762 21.3633 125.807 21.1191 127.057 21.1191C128.092 21.1191 129.029 21.3926 129.869 21.9395C130.729 22.4668 131.402 23.1699 131.891 24.0488C132.398 24.9082 132.652 25.8555 132.652 26.8906C132.652 27.75 132.213 28.1797 131.334 28.1797C130.865 28.1797 130.523 28.0332 130.309 27.7402C130.094 27.4277 129.918 27.0566 129.781 26.627C129.664 26.1777 129.518 25.7383 129.342 25.3086C129.166 24.8789 128.893 24.5176 128.521 24.2246C128.17 23.9121 127.633 23.7559 126.91 23.7559C126.129 23.7559 125.484 23.9805 124.977 24.4297C124.488 24.8789 124.098 25.4648 123.805 26.1875C123.512 26.9102 123.297 27.6914 123.16 28.5312C123.043 29.3516 122.965 30.1523 122.926 30.9336C122.887 31.6953 122.867 32.3398 122.867 32.8672C122.867 33.3945 122.887 34.0293 122.926 34.7715C122.965 35.4941 123.043 36.2461 123.16 37.0273C123.297 37.7891 123.512 38.5117 123.805 39.1953C124.098 39.8594 124.488 40.4062 124.977 40.8359C125.465 41.2461 126.09 41.4512 126.852 41.4512C127.535 41.4512 128.062 41.2852 128.434 40.9531C128.824 40.6211 129.127 40.2109 129.342 39.7227C129.576 39.2148 129.781 38.7168 129.957 38.2285C130.133 37.7402 130.338 37.3301 130.572 36.998C130.826 36.666 131.188 36.5 131.656 36.5C132.555 36.5 133.004 36.9395 133.004 37.8184C133.004 38.3652 132.877 38.9609 132.623 39.6055C132.389 40.2305 132.135 40.7773 131.861 41.2461C131.334 42.2031 130.65 42.916 129.811 43.3848C128.99 43.8535 128.033 44.0879 126.939 44.0879ZM136.578 44.1172C136.07 44.1172 135.709 43.9609 135.494 43.6484C135.299 43.3164 135.201 42.916 135.201 42.4473V22.8184C135.201 22.3496 135.299 21.9492 135.494 21.6172C135.689 21.2852 136.051 21.1191 136.578 21.1191C137.105 21.1191 137.467 21.2852 137.662 21.6172C137.857 21.9492 137.955 22.3496 137.955 22.8184V31.0508H145.045V22.8184C145.045 22.3496 145.143 21.9492 145.338 21.6172C145.533 21.2852 145.895 21.1191 146.422 21.1191C146.949 21.1191 147.311 21.2852 147.506 21.6172C147.701 21.9492 147.799 22.3496 147.799 22.8184V42.4473C147.799 42.916 147.691 43.3164 147.477 43.6484C147.281 43.9609 146.93 44.1172 146.422 44.1172C145.914 44.1172 145.553 43.9609 145.338 43.6484C145.143 43.3164 145.045 42.916 145.045 42.4473V33.6289H137.955V42.4473C137.955 42.916 137.848 43.3164 137.633 43.6484C137.438 43.9609 137.086 44.1172 136.578 44.1172Z" fill="black"/>
<path d="M40.5212 80.5165C39.792 80.5165 39.154 80.2658 38.6071 79.7645C38.0603 79.2405 37.7868 78.6024 37.7868 77.8505V56.2147C37.7868 55.6451 37.9008 55.1666 38.1286 54.7792C38.3793 54.3918 38.8236 54.1981 39.4616 54.1981C40.0997 54.1981 40.5326 54.3918 40.7605 54.7792C41.0111 55.1666 41.1364 55.6451 41.1364 56.2147V76.4491C41.1364 77.1099 41.4668 77.4403 42.1276 77.4403H51.0827C51.6068 77.4403 52.0512 77.5543 52.4157 77.7821C52.7803 77.9872 52.9626 78.386 52.9626 78.9784C52.9626 79.5481 52.7803 79.9468 52.4157 80.1747C52.0512 80.4026 51.6068 80.5165 51.0827 80.5165H40.5212ZM62.6013 80.995C61.986 80.995 61.5645 80.8013 61.3366 80.414C61.1088 80.0266 60.9948 79.5595 60.9948 79.0126V69.5448L55.0476 56.5224C54.9792 56.3629 54.9109 56.2033 54.8425 56.0438C54.7969 55.8616 54.7741 55.6907 54.7741 55.5311C54.7741 55.0526 54.9109 54.7108 55.1843 54.5058C55.4577 54.3007 55.8109 54.1981 56.2439 54.1981C56.6312 54.1981 56.9388 54.3121 57.1667 54.5399C57.4174 54.7678 57.6224 55.0412 57.7819 55.3602L62.6355 65.7509L67.4548 55.3944C67.6143 55.0754 67.8194 54.802 68.07 54.5741C68.3207 54.3235 68.6283 54.1981 68.9929 54.1981C69.4486 54.1981 69.8132 54.3007 70.0866 54.5058C70.3601 54.7108 70.4968 55.0526 70.4968 55.5311C70.4968 55.6907 70.4626 55.8502 70.3942 56.0097C70.3487 56.1692 70.2917 56.3287 70.2234 56.4882L64.2419 69.6132V79.0126C64.2419 79.5823 64.1166 80.0608 63.8659 80.4481C63.6381 80.8127 63.2165 80.995 62.6013 80.995ZM80.6482 80.995C79.2354 80.995 78.0391 80.7216 77.0593 80.1747C76.1023 79.605 75.3161 78.8531 74.7009 77.9188C74.1084 76.9846 73.6527 75.9364 73.3337 74.7743C73.0375 73.6122 72.8324 72.4273 72.7185 71.2196C72.6045 69.9892 72.5476 68.827 72.5476 67.7333C72.5476 66.6168 72.6045 65.4433 72.7185 64.2128C72.8324 62.9595 73.0489 61.7405 73.3679 60.5556C73.6869 59.3707 74.1426 58.2997 74.7351 57.3427C75.3503 56.3856 76.1478 55.6223 77.1276 55.0526C78.1075 54.483 79.3265 54.1981 80.7849 54.1981C81.9926 54.1981 83.0863 54.5171 84.0661 55.1552C85.0687 55.7704 85.8549 56.5907 86.4245 57.6161C87.017 58.6187 87.3132 59.7239 87.3132 60.9315C87.3132 61.9341 86.8005 62.4354 85.7751 62.4354C85.2282 62.4354 84.8295 62.2645 84.5788 61.9227C84.3282 61.5582 84.1231 61.1252 83.9636 60.6239C83.8269 60.0998 83.656 59.5871 83.4509 59.0858C83.2458 58.5845 82.9268 58.163 82.4939 57.8212C82.0837 57.4566 81.4571 57.2743 80.614 57.2743C79.7025 57.2743 78.9506 57.5364 78.3581 58.0604C77.7885 58.5845 77.3327 59.2681 76.9909 60.1112C76.6491 60.9543 76.3985 61.8658 76.239 62.8456C76.1023 63.8026 76.0111 64.7369 75.9655 65.6483C75.92 66.537 75.8972 67.289 75.8972 67.9042C75.8972 68.5194 75.92 69.26 75.9655 70.1259C76.0111 70.969 76.1023 71.8463 76.239 72.7577C76.3985 73.6464 76.6491 74.4895 76.9909 75.287C77.3327 76.0617 77.7885 76.6998 78.3581 77.2011C78.9278 77.6796 79.6569 77.9188 80.5456 77.9188C81.3431 77.9188 81.9584 77.7252 82.3913 77.3378C82.847 76.9504 83.2002 76.4719 83.4509 75.9022C83.7243 75.3098 83.9636 74.7287 84.1687 74.1591C84.3737 73.5894 84.613 73.1109 84.8864 72.7235C85.1827 72.3362 85.6042 72.1425 86.1511 72.1425C87.1993 72.1425 87.7234 72.6552 87.7234 73.6806C87.7234 74.3186 87.5752 75.0136 87.279 75.7655C87.0056 76.4947 86.7094 77.1327 86.3903 77.6796C85.7751 78.7961 84.9776 79.6278 83.9978 80.1747C83.0407 80.7216 81.9242 80.995 80.6482 80.995ZM92.987 80.5165C92.2351 80.5165 91.597 80.2545 91.073 79.7304C90.5489 79.1835 90.2868 78.5341 90.2868 77.7821V57.411C90.2868 56.6819 90.5489 56.0438 91.073 55.497C91.6198 54.9501 92.2579 54.6767 92.987 54.6767H103.617C104.141 54.6767 104.574 54.7906 104.916 55.0185C105.258 55.2235 105.428 55.6109 105.428 56.1806C105.428 56.7502 105.258 57.149 104.916 57.3769C104.574 57.5819 104.141 57.6845 103.617 57.6845H94.8669C93.9554 57.6845 93.4997 58.1402 93.4997 59.0517V65.7851H101.634C102.159 65.7851 102.592 65.899 102.933 66.1269C103.298 66.3319 103.48 66.7193 103.48 67.289C103.48 67.8586 103.298 68.2574 102.933 68.4852C102.592 68.6903 102.159 68.7929 101.634 68.7929H93.4997V76.1415C93.4997 77.053 93.9554 77.5087 94.8669 77.5087H103.617C104.141 77.5087 104.574 77.6226 104.916 77.8505C105.258 78.0556 105.428 78.4429 105.428 79.0126C105.428 79.5823 105.258 79.981 104.916 80.2089C104.574 80.414 104.141 80.5165 103.617 80.5165H92.987ZM115.135 80.995C112.675 80.995 110.829 80.3342 109.598 79.0126C108.391 77.691 107.787 75.8225 107.787 73.4071V56.1464C107.787 55.5995 107.901 55.1438 108.129 54.7792C108.379 54.3918 108.801 54.1981 109.393 54.1981C109.986 54.1981 110.396 54.3918 110.624 54.7792C110.874 55.1438 111 55.5995 111 56.1464V73.0311C111 74.4439 111.296 75.6174 111.888 76.5517C112.504 77.4859 113.586 77.953 115.135 77.953C116.685 77.953 117.756 77.4859 118.348 76.5517C118.964 75.6174 119.271 74.4439 119.271 73.0311V56.1464C119.271 55.5995 119.385 55.1438 119.613 54.7792C119.864 54.3918 120.285 54.1981 120.878 54.1981C121.47 54.1981 121.88 54.3918 122.108 54.7792C122.359 55.1438 122.484 55.5995 122.484 56.1464V73.202C122.484 75.6858 121.892 77.6112 120.707 78.9784C119.545 80.3228 117.688 80.995 115.135 80.995ZM126.551 80.995C126.05 80.995 125.697 80.8355 125.492 80.5165C125.287 80.1975 125.184 79.8101 125.184 79.3544V57.1034C125.184 56.2831 125.355 55.5995 125.697 55.0526C126.039 54.483 126.665 54.1981 127.577 54.1981C128.306 54.1981 128.83 54.426 129.149 54.8817C129.491 55.3375 129.707 55.8957 129.799 56.5565L132.635 73.8856L135.472 56.5565C135.586 55.8957 135.803 55.3375 136.122 54.8817C136.464 54.426 136.999 54.1981 137.728 54.1981C138.64 54.1981 139.255 54.483 139.574 55.0526C139.916 55.6223 140.087 56.3059 140.087 57.1034V79.3544C140.087 79.8101 139.984 80.1975 139.779 80.5165C139.597 80.8355 139.244 80.995 138.719 80.995C138.218 80.995 137.865 80.8355 137.66 80.5165C137.455 80.1975 137.352 79.8101 137.352 79.3544V58.4022L134.003 79.5936C133.934 79.9582 133.798 80.2886 133.592 80.5849C133.387 80.8583 133.068 80.995 132.635 80.995C132.203 80.995 131.884 80.8697 131.678 80.619C131.496 80.3456 131.371 80.0152 131.302 79.6278L127.919 58.4022V79.3544C127.919 79.8101 127.816 80.1975 127.611 80.5165C127.429 80.8355 127.076 80.995 126.551 80.995Z" fill="black"/>
<rect x="14" y="89" width="155.25" height="57.7359" fill="#F4A261"/>
<path d="M57 181.137C56.362 181.137 55.9176 180.943 55.667 180.556C55.4391 180.146 55.3252 179.656 55.3252 179.086V157.826H50.7793C50.278 157.826 49.8678 157.712 49.5488 157.484C49.2526 157.234 49.1045 156.835 49.1045 156.288C49.1045 155.764 49.2526 155.388 49.5488 155.16C49.8678 154.91 50.278 154.784 50.7793 154.784H63.1865C63.7106 154.784 64.1208 154.91 64.417 155.16C64.736 155.388 64.8955 155.775 64.8955 156.322C64.8955 156.869 64.736 157.257 64.417 157.484C64.098 157.712 63.6878 157.826 63.1865 157.826H58.6748V179.086C58.6748 179.656 58.5495 180.146 58.2988 180.556C58.071 180.943 57.638 181.137 57 181.137ZM74.5342 181.103C73.167 181.103 72.0163 180.818 71.082 180.248C70.1706 179.656 69.43 178.881 68.8604 177.924C68.3135 176.944 67.8919 175.873 67.5957 174.711C67.3223 173.526 67.14 172.33 67.0488 171.122C66.9577 169.914 66.9121 168.798 66.9121 167.772C66.9121 166.724 66.9577 165.596 67.0488 164.389C67.1628 163.158 67.3564 161.951 67.6299 160.766C67.9261 159.581 68.359 158.51 68.9287 157.553C69.4984 156.573 70.2503 155.787 71.1846 155.194C72.1188 154.602 73.2809 154.306 74.6709 154.306C76.0153 154.306 77.1318 154.602 78.0205 155.194C78.932 155.787 79.6611 156.573 80.208 157.553C80.7549 158.533 81.165 159.615 81.4385 160.8C81.7119 161.985 81.8942 163.181 81.9854 164.389C82.0765 165.574 82.1221 166.667 82.1221 167.67C82.1221 168.695 82.0765 169.812 81.9854 171.02C81.8942 172.227 81.7005 173.424 81.4043 174.608C81.1309 175.793 80.7093 176.876 80.1396 177.855C79.5928 178.835 78.8636 179.621 77.9521 180.214C77.0407 180.806 75.9014 181.103 74.5342 181.103ZM74.5 178.061C75.776 178.061 76.7331 177.514 77.3711 176.42C77.804 175.691 78.1117 174.791 78.2939 173.72C78.499 172.626 78.6357 171.521 78.7041 170.404C78.7725 169.288 78.8066 168.331 78.8066 167.533C78.8066 166.964 78.7839 166.257 78.7383 165.414C78.7155 164.571 78.6357 163.682 78.499 162.748C78.3623 161.814 78.1344 160.937 77.8154 160.116C77.5192 159.296 77.0977 158.635 76.5508 158.134C76.0039 157.61 75.3089 157.348 74.4658 157.348C73.6455 157.348 72.9733 157.598 72.4492 158.1C71.9251 158.578 71.5036 159.205 71.1846 159.979C70.8883 160.754 70.6719 161.597 70.5352 162.509C70.3984 163.397 70.3073 164.252 70.2617 165.072C70.2389 165.893 70.2275 166.576 70.2275 167.123C70.2275 167.943 70.2503 168.935 70.2959 170.097C70.3643 171.236 70.4896 172.364 70.6719 173.48C70.877 174.597 71.1732 175.531 71.5605 176.283C72.1758 177.468 73.1556 178.061 74.5 178.061ZM86.2236 181.103C85.6312 181.103 85.2096 180.92 84.959 180.556C84.7311 180.168 84.6172 179.701 84.6172 179.154V156.254C84.6172 155.707 84.7311 155.251 84.959 154.887C85.2096 154.499 85.6312 154.306 86.2236 154.306C86.8161 154.306 87.2262 154.499 87.4541 154.887C87.7048 155.251 87.8301 155.707 87.8301 156.254V167.396L96.1357 155.194C96.2952 154.944 96.4889 154.739 96.7168 154.579C96.9674 154.397 97.2409 154.306 97.5371 154.306C98.5397 154.306 99.041 154.784 99.041 155.741C99.041 155.924 98.984 156.117 98.8701 156.322C98.779 156.505 98.6764 156.664 98.5625 156.801L92.7861 164.97L99.5195 178.505C99.6107 178.664 99.679 178.847 99.7246 179.052C99.793 179.234 99.8271 179.416 99.8271 179.599C99.8271 180.1 99.679 180.476 99.3828 180.727C99.1094 180.977 98.722 181.103 98.2207 181.103C97.8105 181.103 97.4801 180.977 97.2295 180.727C96.9788 180.476 96.7624 180.18 96.5801 179.838L90.7695 167.807L87.8301 171.942V179.154C87.8301 179.701 87.7048 180.168 87.4541 180.556C87.2262 180.92 86.8161 181.103 86.2236 181.103ZM109.466 181.103C108.851 181.103 108.429 180.909 108.201 180.521C107.973 180.134 107.859 179.667 107.859 179.12V169.652L101.912 156.63C101.844 156.47 101.775 156.311 101.707 156.151C101.661 155.969 101.639 155.798 101.639 155.639C101.639 155.16 101.775 154.818 102.049 154.613C102.322 154.408 102.675 154.306 103.108 154.306C103.496 154.306 103.803 154.42 104.031 154.647C104.282 154.875 104.487 155.149 104.646 155.468L109.5 165.858L114.319 155.502C114.479 155.183 114.684 154.91 114.935 154.682C115.185 154.431 115.493 154.306 115.857 154.306C116.313 154.306 116.678 154.408 116.951 154.613C117.225 154.818 117.361 155.16 117.361 155.639C117.361 155.798 117.327 155.958 117.259 156.117C117.213 156.277 117.156 156.436 117.088 156.596L111.106 169.721V179.12C111.106 179.69 110.981 180.168 110.73 180.556C110.503 180.92 110.081 181.103 109.466 181.103ZM127.034 181.103C125.667 181.103 124.516 180.818 123.582 180.248C122.671 179.656 121.93 178.881 121.36 177.924C120.813 176.944 120.392 175.873 120.096 174.711C119.822 173.526 119.64 172.33 119.549 171.122C119.458 169.914 119.412 168.798 119.412 167.772C119.412 166.724 119.458 165.596 119.549 164.389C119.663 163.158 119.856 161.951 120.13 160.766C120.426 159.581 120.859 158.51 121.429 157.553C121.998 156.573 122.75 155.787 123.685 155.194C124.619 154.602 125.781 154.306 127.171 154.306C128.515 154.306 129.632 154.602 130.521 155.194C131.432 155.787 132.161 156.573 132.708 157.553C133.255 158.533 133.665 159.615 133.938 160.8C134.212 161.985 134.394 163.181 134.485 164.389C134.576 165.574 134.622 166.667 134.622 167.67C134.622 168.695 134.576 169.812 134.485 171.02C134.394 172.227 134.201 173.424 133.904 174.608C133.631 175.793 133.209 176.876 132.64 177.855C132.093 178.835 131.364 179.621 130.452 180.214C129.541 180.806 128.401 181.103 127.034 181.103ZM127 178.061C128.276 178.061 129.233 177.514 129.871 176.42C130.304 175.691 130.612 174.791 130.794 173.72C130.999 172.626 131.136 171.521 131.204 170.404C131.272 169.288 131.307 168.331 131.307 167.533C131.307 166.964 131.284 166.257 131.238 165.414C131.215 164.571 131.136 163.682 130.999 162.748C130.862 161.814 130.634 160.937 130.315 160.116C130.019 159.296 129.598 158.635 129.051 158.134C128.504 157.61 127.809 157.348 126.966 157.348C126.146 157.348 125.473 157.598 124.949 158.1C124.425 158.578 124.004 159.205 123.685 159.979C123.388 160.754 123.172 161.597 123.035 162.509C122.898 163.397 122.807 164.252 122.762 165.072C122.739 165.893 122.728 166.576 122.728 167.123C122.728 167.943 122.75 168.935 122.796 170.097C122.864 171.236 122.99 172.364 123.172 173.48C123.377 174.597 123.673 175.531 124.061 176.283C124.676 177.468 125.656 178.061 127 178.061Z" fill="black"/>
</svg>
