<svg width="269" height="255" viewBox="0 0 269 255" fill="none" xmlns="http://www.w3.org/2000/svg">
<ellipse cx="134.5" cy="127.5" rx="134.5" ry="127.5" fill="black" fill-opacity="0.7"/>
<ellipse cx="135" cy="128" rx="49" ry="45" fill="white"/>
<ellipse cx="134.5" cy="128" rx="7.5" ry="8" fill="black" fill-opacity="0.7"/>
<path d="M164 127C164 141.912 150.792 154 134.5 154C118.208 154 105 141.912 105 127C105 112.088 118.208 100 134.5 100C150.792 100 164 112.088 164 127ZM110.326 127C110.326 139.219 121.149 149.125 134.5 149.125C147.851 149.125 158.674 139.219 158.674 127C158.674 114.781 147.851 104.875 134.5 104.875C121.149 104.875 110.326 114.781 110.326 127Z" fill="black" fill-opacity="0.7"/>
</svg>
