<svg width="165" height="339" viewBox="0 0 165 339" fill="none" xmlns="http://www.w3.org/2000/svg">
<path d="M119.473 17.0734C122.051 22.6019 119.876 28.2352 115.677 30.0877C111.478 31.9402 105.688 29.8211 103.11 24.2926C102.926 23.8993 102.788 22.7716 103.703 20.5451C104.559 18.4611 106.084 16.0498 108.002 13.6279C109.904 11.2274 112.091 8.94232 114.157 7.10883C114.961 6.39539 115.714 5.77839 116.399 5.26126C116.413 5.34109 116.427 5.42286 116.441 5.5066C116.481 5.74075 116.522 5.98574 116.564 6.24038C117.055 9.1781 117.76 13.3998 119.473 17.0734ZM115.769 2.47347C115.77 2.4722 115.778 2.48777 115.793 2.52399C115.776 2.49285 115.769 2.47474 115.769 2.47347Z" fill="#F74C4E" stroke="black" stroke-width="7"/>
<path d="M85.666 25.7498C81.1283 35.4799 84.3906 45.0765 91.0409 48.0105C97.6912 50.9446 107.264 47.0104 111.801 37.2804C112.493 35.7976 112.498 33.3699 111.254 29.8977C110.049 26.5323 107.873 22.7648 105.173 19.073C102.488 15.4007 99.3781 11.93 96.4219 9.15765C94.4736 7.33051 92.6899 5.89946 91.2123 4.91185C90.9923 5.7993 90.7583 6.93481 90.486 8.3459C90.4166 8.70549 90.3456 9.07815 90.2724 9.46244C89.398 14.0517 88.2075 20.2999 85.666 25.7498ZM91.8455 2.99712C91.8454 2.9969 91.8424 3.00138 91.8367 3.01122C91.8427 3.00226 91.8456 2.99734 91.8455 2.99712Z" fill="#F74C4E" stroke="black" stroke-width="7"/>
<path d="M130.625 38.3825C128.847 48.892 120.67 55.1315 113.432 53.973C106.193 52.8146 100.503 44.3558 102.281 33.8463C102.55 32.2556 103.922 30.239 106.942 28.0214C109.867 25.8739 113.829 23.9166 118.184 22.3046C122.515 20.7013 127.084 19.4947 131.128 18.7862C133.801 18.3179 136.11 18.0911 137.908 18.0694C137.586 18.9213 137.135 19.9851 136.559 21.2967C136.411 21.6333 136.258 21.9817 136.099 22.341C134.205 26.6288 131.625 32.4721 130.625 38.3825ZM138.48 16.1278C138.48 16.1276 138.48 16.1335 138.479 16.1461C138.479 16.1342 138.48 16.1279 138.48 16.1278Z" fill="#F74C4E" stroke="black" stroke-width="7"/>
<path d="M68.4168 49.6603C59.4701 65.5966 63.8338 83.6295 76.658 90.4405C89.4821 97.2516 107.438 91.073 116.385 75.1367C118.098 72.0854 118.164 67.3918 116.295 61.226C114.463 55.1879 110.973 48.4084 106.635 41.7704C102.311 35.1542 97.2321 28.8128 92.3394 23.6584C87.9376 19.021 83.8535 15.5223 80.7268 13.5945C79.8957 15.2895 79.0836 18.1428 78.0541 22.1075C77.9037 22.6869 77.7499 23.2848 77.5919 23.8989C75.6669 31.3825 73.1203 41.2822 68.4168 49.6603Z" fill="#F74C4E" stroke="black" stroke-width="7"/>
<path d="M94.2187 89.3513H103.35L83.081 150.267L82.9822 150.563L82.9596 150.875L78.3989 213.913L78.3767 214.219L78.4296 214.522L89.9361 280.507L95.6471 336.5H87.6269L70.4433 214.01L75.4417 145.945L94.2187 89.3513Z" fill="#588157" stroke="black" stroke-width="5"/>
<path d="M122.529 221.324C125.243 220.613 126.968 224.165 124.68 225.753L92.569 248.03C91.296 248.913 89.5051 248.44 88.8258 247.041L82.8506 234.736C82.1713 233.338 82.9332 231.692 84.4431 231.296L122.529 221.324Z" fill="#588157" stroke="black" stroke-width="5"/>
<path d="M33.1958 173.696C30.482 172.985 28.7571 176.537 31.0451 178.124L63.1562 200.402C64.4292 201.285 66.2201 200.812 66.8994 199.413L72.8746 187.108C73.5539 185.709 72.7921 184.064 71.2822 183.668L33.1958 173.696Z" fill="#588157" stroke="black" stroke-width="5"/>
<path d="M146.158 65.9675C150.232 83.6436 140.957 99.8266 126.658 102.945C112.359 106.063 96.8685 95.2802 92.7941 77.6041C92.0169 74.2322 93.2739 69.7127 96.8216 64.2826C100.293 58.9689 105.57 53.3865 111.623 48.1675C117.656 42.9657 124.337 38.2303 130.503 34.586C136.059 31.3024 140.988 29.0293 144.548 28.0152C144.862 29.8623 144.834 32.8108 144.701 36.8853C144.681 37.4827 144.659 38.0989 144.637 38.7319C144.367 46.4406 144.009 56.6459 146.158 65.9675Z" fill="#F74C4E" stroke="black" stroke-width="7"/>
</svg>
